<svg xmlns="http://www.w3.org/2000/svg" xmlns:xlink="http://www.w3.org/1999/xlink" width="500" zoomAndPan="magnify" viewBox="0 0 375 374.999991" height="500" preserveAspectRatio="xMidYMid meet" version="1.0"><defs><clipPath id="a7a1dfc8fe"><path d="M 0.429688 106.703125 L 270 106.703125 L 270 278 L 0.429688 278 Z M 0.429688 106.703125 " clip-rule="nonzero"/></clipPath><clipPath id="5af5a333f1"><path d="M 167 290 L 234 290 L 234 357.140625 L 167 357.140625 Z M 167 290 " clip-rule="nonzero"/></clipPath><clipPath id="2f2349c382"><path d="M 72 290 L 139 290 L 139 357.140625 L 72 357.140625 Z M 72 290 " clip-rule="nonzero"/></clipPath><clipPath id="cd4943b8e0"><path d="M 102.859375 0.207031 L 209.804688 0.207031 L 209.804688 107 L 102.859375 107 Z M 102.859375 0.207031 " clip-rule="nonzero"/></clipPath><clipPath id="590dff2f08"><rect x="0" width="271" y="0" height="358"/></clipPath></defs><rect x="-37.5" width="450" fill="#ffffff" y="-37.499999" height="449.999989" fill-opacity="1"/><g transform="matrix(1, 0, 0, 1, 45, 11)"><g clip-path="url(#590dff2f08)"><g clip-path="url(#a7a1dfc8fe)"><path fill="#d3858b" d="M 261.570312 136.128906 C 259.734375 136.070312 257.894531 136.113281 256.0625 136.113281 C 193.40625 136.113281 130.746094 136.113281 68.09375 136.113281 C 65.699219 136.113281 63.300781 136.113281 60.757812 136.113281 C 58.636719 128.097656 56.597656 120.632812 54.699219 113.128906 C 53.816406 109.648438 52.144531 106.867188 48.277344 106.835938 C 34.398438 106.703125 20.519531 106.703125 6.648438 106.828125 C 2.863281 106.867188 0.507812 109.164062 0.457031 113.023438 C 0.40625 116.847656 2.597656 119.066406 6.429688 119.425781 C 8.25 119.597656 10.097656 119.527344 11.9375 119.527344 C 22.125 119.53125 32.304688 119.53125 42.839844 119.53125 C 43.5 121.628906 43.976562 122.972656 44.335938 124.351562 C 56.628906 172.097656 68.917969 219.84375 81.179688 267.59375 C 83.519531 276.714844 84.085938 277.230469 93.703125 277.230469 C 136.359375 277.238281 179.015625 277.242188 221.671875 277.238281 C 229.113281 277.238281 232.125 275.441406 232.289062 270.96875 C 232.460938 266.273438 229.285156 264.253906 221.515625 264.246094 C 185.191406 264.234375 148.863281 264.242188 112.53125 264.242188 C 107.628906 264.242188 102.722656 264.453125 97.84375 264.105469 C 96.183594 263.992188 93.589844 262.808594 93.1875 261.550781 C 91.339844 255.773438 90.121094 249.800781 88.421875 242.867188 C 93.953125 242.867188 98.796875 242.867188 103.648438 242.867188 C 145.0625 242.867188 186.46875 242.871094 227.882812 242.859375 C 235.777344 242.859375 236.660156 242.203125 239.230469 234.597656 C 242.757812 224.167969 246.253906 213.726562 249.765625 203.292969 C 256.144531 184.351562 262.578125 165.433594 268.890625 146.472656 C 271.128906 139.710938 268.660156 136.359375 261.570312 136.128906 Z M 245.378906 175.925781 C 239.851562 192.335938 234.207031 208.710938 228.839844 225.171875 C 227.695312 228.675781 226.003906 229.9375 222.308594 229.894531 C 197.453125 229.59375 172.589844 229.421875 147.730469 229.371094 C 135.980469 229.34375 124.230469 229.722656 112.476562 229.824219 C 104.351562 229.894531 96.210938 229.945312 88.085938 229.671875 C 86.734375 229.625 84.578125 228.066406 84.253906 226.820312 C 77.46875 201.253906 70.898438 175.625 64.132812 149.433594 C 127.539062 149.433594 190.398438 149.433594 254.234375 149.433594 C 251.160156 158.628906 248.285156 167.285156 245.378906 175.925781 Z M 245.378906 175.925781 " fill-opacity="1" fill-rule="nonzero"/></g><g clip-path="url(#5af5a333f1)"><path fill="#d3858b" d="M 200.738281 290.929688 C 182.371094 290.964844 167.296875 306.273438 167.574219 324.613281 C 167.839844 342.875 182.75 357.386719 201.050781 357.207031 C 219.402344 357.03125 233.972656 342.269531 233.832031 323.992188 C 233.691406 305.75 218.828125 290.898438 200.738281 290.929688 Z M 200.460938 344.378906 C 189.375 344.21875 180.4375 334.992188 180.59375 323.878906 C 180.753906 312.664062 189.765625 303.929688 201.03125 304.054688 C 212.230469 304.191406 221.058594 313.246094 220.910156 324.445312 C 220.761719 335.527344 211.511719 344.535156 200.460938 344.378906 Z M 200.460938 344.378906 " fill-opacity="1" fill-rule="nonzero"/></g><g clip-path="url(#2f2349c382)"><path fill="#d3858b" d="M 106.054688 290.949219 C 88.132812 290.367188 72.738281 305.089844 72.261719 323.277344 C 71.773438 341.617188 86.03125 356.714844 104.292969 357.195312 C 122.925781 357.6875 138.113281 343.265625 138.480469 324.734375 C 138.832031 306.636719 124.339844 291.539062 106.054688 290.949219 Z M 104.996094 344.371094 C 93.910156 344.167969 84.96875 334.925781 85.136719 323.847656 C 85.308594 312.707031 94.382812 303.960938 105.652344 304.070312 C 116.816406 304.179688 125.617188 313.246094 125.476562 324.503906 C 125.347656 335.570312 116.0625 344.574219 104.996094 344.371094 Z M 104.996094 344.371094 " fill-opacity="1" fill-rule="nonzero"/></g><g clip-path="url(#cd4943b8e0)"><path fill="#d3858b" d="M 167.566406 47.421875 L 183.730469 25.808594 L 162.121094 41.972656 L 156.097656 0.207031 L 150.074219 41.972656 L 128.460938 25.808594 L 144.628906 47.421875 L 102.859375 53.445312 L 144.628906 59.464844 L 128.460938 81.078125 L 150.074219 64.914062 L 156.097656 106.679688 L 162.121094 64.914062 L 183.730469 81.078125 L 167.566406 59.464844 L 209.335938 53.445312 Z M 167.566406 47.421875 " fill-opacity="1" fill-rule="nonzero"/></g></g></g></svg>